<svg width="160" height="40" viewBox="0 0 160 40" fill="none" xmlns="http://www.w3.org/2000/svg">
<path d="M46.5539 33.4775V17.0236L42.6324 27.8794H40.1664L36.447 17.2506V33.4775H32V7H36.0023L41.5813 20.9574L46.9986 7H51.1222V33.4775H46.5539Z" fill="black"/>
<path d="M54.9379 33.4775V7H66.7427V10.7825H59.3849V18.2719H65.732V22.0165H59.3849V29.695H66.7427V33.4775H54.9379Z" fill="black"/>
<path d="M70.1867 33.4775V7H74.6337V33.4775H70.1867Z" fill="black"/>
<path d="M92.8959 26.8582C92.8959 30.792 90.0255 33.6667 85.7806 33.6667C81.4549 33.6667 78.6654 30.792 78.6654 26.8582V7H83.072V27.0851C83.072 28.9385 84.2444 29.922 85.7806 29.922C87.1956 29.922 88.4893 28.9385 88.4893 27.0851V7H92.8959V26.8582Z" fill="black"/>
<path d="M110.746 26.2908C110.746 30.1868 108.765 33.4775 103.711 33.4775C97.1215 33.4775 96.3129 29.2411 96.3129 20.2766C96.3129 11.2364 97.1215 7 103.711 7C108.967 7 110.746 9.95036 110.746 14.1111H106.379C106.379 11.9929 105.813 10.6312 103.711 10.6312C100.517 10.6312 100.679 14.6785 100.679 20.2388C100.679 25.6099 100.517 29.7707 103.711 29.7707C105.652 29.7707 106.42 28.5603 106.42 26.2908H110.746Z" fill="black"/>
<path d="M121.511 7C126.443 7 128.667 9.72341 128.667 13.7329V33.4775H124.26V22.0922H118.802V33.4775H114.355V13.7329C114.355 9.87471 116.66 7 121.511 7ZM118.883 18.4988H124.341V13.5816C124.341 11.7281 123.088 10.8203 121.592 10.8203C120.136 10.8203 118.883 11.7281 118.883 13.5816V18.4988Z" fill="black"/>
</svg>
