<svg width="132" height="40" viewBox="0 0 132 40" fill="none" xmlns="http://www.w3.org/2000/svg">
<path d="M19.9625 39.7138V15.0388L14.6258 31.3178H11.27L6.21297 15.3727V39.7138H0.15387V0H5.60706L13.2042 20.9302L20.5684 0H26.1847V39.7138H19.9625Z" fill="black"/>
<path d="M31.4165 0H47.4848V5.67681H37.464V16.9112H46.1099V22.5283H37.464V34.0489H47.4848V39.7257H31.4165V0Z" fill="black"/>
<path d="M52.1572 39.7138V0H58.2163V39.7138H52.1572Z" fill="black"/>
<path d="M83.0936 29.7913C83.0936 35.6947 79.1902 40 73.4107 40C67.5264 40 63.7279 35.6828 63.7279 29.7913V0H69.7287V30.1252C69.7287 32.904 71.325 34.3828 73.4107 34.3828C75.3333 34.3828 77.0928 32.904 77.0928 30.1252V0H83.0936V29.7913Z" fill="black"/>
<path d="M107.412 28.9326C107.412 34.7764 104.72 39.7138 97.8335 39.7138C88.8614 39.7138 87.7661 33.3572 87.7661 19.9165C87.7661 6.35659 88.873 0 97.8335 0C104.988 0 107.412 4.42457 107.412 10.6619H101.469C101.469 7.48957 100.7 5.43828 97.8335 5.43828C93.4873 5.43828 93.7087 11.5086 93.7087 19.845C93.7087 27.907 93.4873 34.1443 97.8335 34.1443C100.479 34.1443 101.516 32.3316 101.516 28.9207H107.412V28.9326Z" fill="black"/>
<path d="M122.105 0C128.817 0 131.846 4.09064 131.846 10.1014V39.7138H125.845V22.6357H118.411V39.7138H112.352V10.1014C112.364 4.31723 115.51 0 122.105 0ZM118.528 17.2451H125.962V9.87478C125.962 7.09601 124.261 5.73644 122.221 5.73644C120.241 5.73644 118.539 7.09601 118.539 9.87478V17.2451H118.528Z" fill="black"/>
</svg>
