<svg width="707" height="1060" viewBox="0 0 707 1060" fill="none" xmlns="http://www.w3.org/2000/svg">
<rect width="707" height="1060" fill="#44C8EA"/>
<rect y="707" width="707" height="353" fill="black"/>
<path fill-rule="evenodd" clip-rule="evenodd" d="M353.333 353.333H706.667V706.667H353.333V353.333ZM353.333 1060V706.667H706.667C706.667 901.809 548.476 1060 353.333 1060ZM353.333 1060C353.333 864.858 195.142 706.667 4.21346e-06 706.667L0 1060H353.333Z" fill="#1474FF"/>
<path d="M176.667 353.333C274.237 353.333 353.333 274.237 353.333 176.667C353.333 79.0964 274.237 0 176.667 0C79.0964 0 0 79.0964 0 176.667C0 274.237 79.0964 353.333 176.667 353.333Z" fill="white"/>
</svg>
