<svg width="161" height="24" viewBox="0 0 161 24" fill="none" xmlns="http://www.w3.org/2000/svg">
<path d="M36.1759 17.192C34.9599 17.192 34.0266 16.9147 33.3759 16.36C32.7252 15.8054 32.3999 14.9894 32.3999 13.912V13.224H34.7039V13.88C34.7039 14.3174 34.8266 14.6534 35.0719 14.888C35.3279 15.1227 35.6959 15.24 36.1759 15.24C36.6452 15.24 36.9972 15.1227 37.2319 14.888C37.4666 14.6534 37.5839 14.3174 37.5839 13.88V6.02403H39.9199V13.912C39.9199 14.9894 39.5999 15.8054 38.9599 16.36C38.3199 16.9147 37.3919 17.192 36.1759 17.192Z" fill="white"/>
<path d="M45.7705 17.192C44.3305 17.192 43.2585 16.8347 42.5545 16.12C41.8505 15.4054 41.4985 14.296 41.4985 12.792C41.4985 11.288 41.8505 10.1787 42.5545 9.46403C43.2585 8.74936 44.3305 8.39203 45.7705 8.39203C47.2105 8.39203 48.2825 8.74936 48.9865 9.46403C49.7012 10.1787 50.0585 11.288 50.0585 12.792C50.0585 14.296 49.7012 15.4054 48.9865 16.12C48.2825 16.8347 47.2105 17.192 45.7705 17.192ZM45.7705 15.4C46.4852 15.4 47.0025 15.1974 47.3225 14.792C47.6425 14.376 47.8025 13.752 47.8025 12.92V12.664C47.8025 11.832 47.6425 11.2134 47.3225 10.808C47.0025 10.392 46.4852 10.184 45.7705 10.184C45.0559 10.184 44.5385 10.392 44.2185 10.808C43.9092 11.2134 43.7545 11.832 43.7545 12.664V12.92C43.7545 13.752 43.9092 14.376 44.2185 14.792C44.5385 15.1974 45.0559 15.4 45.7705 15.4Z" fill="white"/>
<path d="M54.0638 17.192C53.2744 17.192 52.7091 16.9787 52.3678 16.552C52.0264 16.1254 51.8558 15.5867 51.8558 14.936V10.376H50.8478V8.58403H51.9038L52.2718 6.21603H54.0478V8.58403H55.5038V10.376H54.0478V14.712C54.0478 15.1707 54.2771 15.4 54.7358 15.4H55.5038V16.936C55.3224 17 55.0931 17.0587 54.8158 17.112C54.5491 17.1654 54.2984 17.192 54.0638 17.192Z" fill="white"/>
<path d="M59.0719 17.192C58.4212 17.192 57.8239 17.0214 57.2799 16.68C56.7359 16.3387 56.4639 15.72 56.4639 14.824C56.4639 13.7467 56.9066 12.984 57.7919 12.536C58.6772 12.0774 59.9306 11.848 61.5519 11.848V11.256C61.5519 10.8827 61.4666 10.5947 61.2959 10.392C61.1359 10.1894 60.8266 10.088 60.3679 10.088C59.8772 10.088 59.5252 10.1627 59.3119 10.312C59.1092 10.4614 59.0079 10.6374 59.0079 10.84V11.08H56.8959C56.8852 11.016 56.8799 10.8987 56.8799 10.728C56.8799 10.024 57.1892 9.4587 57.8079 9.03203C58.4372 8.60536 59.2692 8.39203 60.3039 8.39203C61.4559 8.39203 62.3146 8.6267 62.8799 9.09603C63.4559 9.56536 63.7439 10.2427 63.7439 11.128V14.84C63.7439 15.032 63.7972 15.176 63.9039 15.272C64.0106 15.3574 64.1439 15.4 64.3039 15.4H64.7519V16.936C64.4106 17.1067 63.9892 17.192 63.4879 17.192C63.0506 17.192 62.6826 17.096 62.3839 16.904C62.0959 16.712 61.8986 16.44 61.7919 16.088H61.6959C61.3866 16.4507 61.0292 16.728 60.6239 16.92C60.2292 17.1014 59.7119 17.192 59.0719 17.192ZM59.7599 15.464C60.3786 15.464 60.8319 15.2934 61.1199 14.952C61.4079 14.6 61.5519 14.136 61.5519 13.56V13.304C59.6426 13.304 58.6879 13.7307 58.6879 14.584C58.6879 14.8507 58.7732 15.064 58.9439 15.224C59.1252 15.384 59.3972 15.464 59.7599 15.464Z" fill="white"/>
<path d="M70.4157 6.02403H74.9597C76.6343 6.02403 77.925 6.4827 78.8317 7.40003C79.749 8.3067 80.2077 9.67736 80.2077 11.512C80.2077 13.3467 79.749 14.7227 78.8317 15.64C77.925 16.5467 76.6343 17 74.9597 17H70.4157V6.02403ZM74.9597 15.032C75.8983 15.032 76.6077 14.7494 77.0877 14.184C77.5783 13.608 77.8237 12.7974 77.8237 11.752V11.272C77.8237 10.2267 77.5783 9.42136 77.0877 8.85603C76.6077 8.28003 75.8983 7.99203 74.9597 7.99203H72.7357V15.032H74.9597Z" fill="white"/>
<path d="M86.1705 17.192C85.3279 17.192 84.5545 17.064 83.8505 16.808C83.1572 16.5414 82.6025 16.152 82.1865 15.64C81.7705 15.128 81.5625 14.5094 81.5625 13.784L81.5785 13.432H83.9305L83.9145 13.688C83.9145 14.1574 84.1225 14.5307 84.5385 14.808C84.9545 15.0854 85.5359 15.224 86.2825 15.224C87.0719 15.224 87.6425 15.1227 87.9945 14.92C88.3465 14.7067 88.5225 14.424 88.5225 14.072C88.5225 13.7627 88.4052 13.5067 88.1705 13.304C87.9465 13.0907 87.6585 12.9254 87.3065 12.808C86.9652 12.68 86.4905 12.5307 85.8825 12.36C85.0185 12.1147 84.3199 11.88 83.7865 11.656C83.2532 11.432 82.7945 11.1014 82.4105 10.664C82.0265 10.216 81.8345 9.62936 81.8345 8.90403C81.8345 7.90136 82.2399 7.1387 83.0505 6.61603C83.8612 6.09336 84.9385 5.83203 86.2825 5.83203C87.5519 5.83203 88.5865 6.10403 89.3865 6.64803C90.1972 7.18136 90.6025 7.9867 90.6025 9.06403V9.25603H88.2985V9.11203C88.2985 8.7067 88.1119 8.3867 87.7385 8.15203C87.3759 7.91736 86.8799 7.80003 86.2505 7.80003C85.5785 7.80003 85.0612 7.8907 84.6985 8.07203C84.3465 8.25336 84.1705 8.50403 84.1705 8.82403C84.1705 9.06936 84.2772 9.2827 84.4905 9.46403C84.7039 9.6347 84.9705 9.7787 85.2905 9.89603C85.6105 10.0027 86.0639 10.136 86.6505 10.296C87.5252 10.5307 88.2399 10.7654 88.7945 11C89.3599 11.224 89.8452 11.56 90.2505 12.008C90.6559 12.456 90.8585 13.0427 90.8585 13.768C90.8585 14.9414 90.4372 15.8054 89.5945 16.36C88.7625 16.9147 87.6212 17.192 86.1705 17.192Z" fill="white"/>
<path d="M98.8584 12C98.8584 5.37258 104.231 0 110.858 0H148.858C155.486 0 160.858 5.37258 160.858 12C160.858 18.6274 155.486 24 148.858 24H110.858C104.231 24 98.8584 18.6274 98.8584 12Z" fill="#F673AD"/>
<path d="M116.279 7.396H121.179C121.702 7.396 122.164 7.494 122.565 7.69C122.976 7.886 123.293 8.166 123.517 8.53C123.751 8.88467 123.867 9.29533 123.867 9.762C123.867 10.294 123.718 10.756 123.419 11.148C123.13 11.54 122.747 11.8107 122.271 11.96V12.016C122.831 12.1373 123.279 12.408 123.615 12.828C123.961 13.2387 124.133 13.766 124.133 14.41C124.133 15.2687 123.863 15.9173 123.321 16.356C122.78 16.7853 122.066 17 121.179 17H116.279V7.396ZM120.829 11.414C121.268 11.414 121.618 11.2927 121.879 11.05C122.15 10.798 122.285 10.4713 122.285 10.07C122.285 9.622 122.164 9.286 121.921 9.062C121.679 8.838 121.347 8.726 120.927 8.726H117.833V11.414H120.829ZM121.067 15.67C121.534 15.67 121.898 15.5533 122.159 15.32C122.421 15.0867 122.551 14.7227 122.551 14.228C122.551 13.7427 122.416 13.374 122.145 13.122C121.875 12.87 121.478 12.744 120.955 12.744H117.833V15.67H121.067ZM128.846 17.168C127.66 17.168 126.778 16.8553 126.2 16.23C125.621 15.6047 125.332 14.634 125.332 13.318C125.332 12.002 125.621 11.0313 126.2 10.406C126.778 9.78067 127.66 9.468 128.846 9.468C129.919 9.468 130.722 9.762 131.254 10.35C131.786 10.9287 132.052 11.8527 132.052 13.122V13.682H126.816C126.853 14.4753 127.03 15.0633 127.348 15.446C127.674 15.8193 128.178 16.006 128.86 16.006C129.392 16.006 129.821 15.88 130.148 15.628C130.474 15.376 130.638 14.9887 130.638 14.466H132.052C132.052 15.3433 131.753 16.0153 131.156 16.482C130.568 16.9393 129.798 17.168 128.846 17.168ZM130.554 12.59C130.554 11.2833 129.984 10.63 128.846 10.63C128.211 10.63 127.735 10.7887 127.418 11.106C127.1 11.414 126.909 11.9087 126.844 12.59H130.554ZM135.295 17.154C134.735 17.154 134.329 16.9953 134.077 16.678C133.825 16.3513 133.699 15.95 133.699 15.474V10.826H132.803V9.636H133.713L133.993 7.578H135.141V9.636H136.387V10.826H135.141V15.334C135.141 15.7633 135.342 15.978 135.743 15.978H136.387V16.958C136.266 17.014 136.098 17.0607 135.883 17.098C135.678 17.1353 135.482 17.154 135.295 17.154ZM139.564 17.168C138.957 17.168 138.407 17.0187 137.912 16.72C137.427 16.4213 137.184 15.88 137.184 15.096C137.184 14.1533 137.595 13.5 138.416 13.136C139.237 12.772 140.413 12.59 141.944 12.59V11.862C141.944 11.4607 141.837 11.1573 141.622 10.952C141.417 10.7373 141.029 10.63 140.46 10.63C139.909 10.63 139.517 10.728 139.284 10.924C139.06 11.12 138.948 11.358 138.948 11.638V11.82H137.548C137.539 11.764 137.534 11.6613 137.534 11.512C137.534 10.868 137.805 10.3687 138.346 10.014C138.887 9.65 139.611 9.468 140.516 9.468C141.468 9.468 142.182 9.664 142.658 10.056C143.143 10.448 143.386 11.0033 143.386 11.722V15.488C143.386 15.656 143.433 15.782 143.526 15.866C143.619 15.9407 143.736 15.978 143.876 15.978H144.38V16.944C144.137 17.0653 143.806 17.126 143.386 17.126C143.05 17.126 142.765 17.0373 142.532 16.86C142.308 16.6733 142.159 16.4213 142.084 16.104H141.986C141.725 16.44 141.389 16.7013 140.978 16.888C140.577 17.0747 140.105 17.168 139.564 17.168ZM139.984 15.992C140.535 15.992 140.997 15.8287 141.37 15.502C141.753 15.166 141.944 14.7087 141.944 14.13V13.682C140.88 13.682 140.068 13.7753 139.508 13.962C138.948 14.1393 138.668 14.48 138.668 14.984C138.668 15.3293 138.775 15.586 138.99 15.754C139.214 15.9127 139.545 15.992 139.984 15.992Z" fill="black"/>
<path d="M19.4503 24H4.54968C2.04839 24 0 21.9535 0 19.4503V4.54968C0 2.04651 2.04839 0 4.54968 0H19.4503C21.9516 0 24 2.04651 24 4.54968V19.4503C24 21.9516 21.9535 24 19.4503 24Z" fill="black"/>
<path d="M12.6831 17.4564V6.54541H16.7291V13.4103C16.7291 15.6429 14.9175 17.4564 12.6831 17.4564Z" fill="#1474FF"/>
<path d="M12.17 17.4568H7.27075V12.5557C9.97687 12.5557 12.17 14.7506 12.17 17.4568Z" fill="#1474FF"/>
</svg>
