<svg width="102" height="38" viewBox="0 0 102 38" fill="none" xmlns="http://www.w3.org/2000/svg">
<path d="M15.4041 8.28154C16.531 7.91423 17.7331 7.71833 18.9802 7.71833C24.4397 7.71833 28.9976 11.5089 30.0394 16.5484L37.7778 15.0057C36.0047 6.44501 28.2613 0 18.9802 0C16.8516 0 14.813 0.337922 12.8997 0.964792L15.4041 8.28154Z" fill="#FFCC00"/>
<path d="M6.45236 33.0968L11.6712 27.2299C9.34394 25.1782 7.87568 22.1826 7.87568 18.8443C7.87568 15.5109 9.34394 12.5154 11.6712 10.4687L6.45236 4.59677C2.49704 8.08413 0 13.1761 0 18.8443C0 24.5175 2.49704 29.6094 6.45236 33.0968Z" fill="#00A0DE"/>
<path d="M30.0394 21.1452C28.9926 26.276 24.4397 30.1341 18.9853 30.1341C17.7331 30.1341 16.526 29.9344 15.4041 29.5551L12.8997 37.0218C14.813 37.6556 16.8566 38 18.9853 38C28.2563 38 35.9947 31.4417 37.7778 22.7273L30.0394 21.1452Z" fill="#EC3413"/>
<path d="M47.0978 27.6033C46.845 27.1906 46.5078 26.5312 46.2996 26.043C45.085 23.1841 45.0304 20.2246 46.0517 17.3858C47.1772 14.2702 49.3288 11.8895 52.1102 10.6715C55.6055 9.14639 59.4676 9.44335 62.8191 11.4617C64.946 12.6999 66.4532 14.6125 67.5984 17.3204C67.7422 17.6677 67.8711 18.0351 68 18.3522L47.0978 27.6033ZM54.0784 15.2668C51.5946 16.349 50.3155 18.7146 50.5832 21.4829L61.0938 16.8875C59.2842 14.7333 56.9342 14.0186 54.0784 15.2668ZM62.4026 25.2628C62.3977 25.2628 62.3977 25.2679 62.3977 25.2679L62.1795 25.1169C61.5499 26.1487 60.5732 26.9893 59.3387 27.5328C56.9887 28.5697 54.8122 28.3029 53.2455 26.9087L53.1018 27.1302C53.1018 27.1302 53.1018 27.1251 53.0968 27.1251L50.4295 31.1769C51.0938 31.645 51.8028 32.0376 52.5465 32.3547C55.4914 33.5979 58.5058 33.5375 61.4755 32.2289C63.6223 31.2826 65.3079 29.8431 66.4581 28.016L62.4026 25.2628Z" fill="black"/>
<path d="M75.4929 4.75V27.2066L79.0271 28.6221L77.0213 33.25L73.1215 31.6438C72.2481 31.2673 71.6489 30.6951 71.2021 30.0476C70.7704 29.3901 70.4505 28.4816 70.4505 27.2669V4.75H75.4929Z" fill="black"/>
<path d="M84.4684 21.6381C84.4684 19.716 85.3295 17.9906 86.6847 16.8201L83.047 12.8043C80.581 14.9636 79.0271 18.1167 79.0271 21.628C79.022 25.1444 80.5759 28.3026 83.0368 30.4619L86.6694 26.446C85.3193 25.2705 84.4684 23.5552 84.4684 21.6381Z" fill="black"/>
<path d="M90.6666 27.8419C89.974 27.8419 89.3012 27.7204 88.6779 27.5077L86.991 32.6373C88.1436 33.0323 89.3754 33.25 90.6616 33.25C96.2517 33.2551 100.917 29.1939 102 23.8011L96.8156 22.7174C96.2269 25.6493 93.699 27.847 90.6666 27.8419Z" fill="black"/>
<path d="M90.6615 9.70657C89.3786 9.70657 88.1452 9.91873 86.991 10.3077L88.6653 15.43C89.2944 15.2179 89.9631 15.1017 90.6566 15.1017C93.698 15.1067 96.2342 17.3092 96.8088 20.2392L102 19.1682C100.935 13.7782 96.2639 9.71162 90.6615 9.70657Z" fill="black"/>
</svg>
